# xmcd
# 
# Track frame offsets:
#     183
#     12600
#     26500
#     42843
#     55140
#     69780
#     83323
#     98658
#     113543
#     127675
#     145180
#     162908
#     180835
# 
# Disc length: 2594
# 
# Revision: 1
# Processed by: cddbd v1.5.2PL0 Copyright (c) Steve Scherf et al.
# Submitted via: fre:ac v1.0.17
# 
DISCID=8b0a200d
DTITLE=Ginga Pura - Nada Igual
DYEAR=1994
DGENRE=Pagode
TTITLE0=Chegando Na Roda
TTITLE1=Errar É Humano
TTITLE2=Nada Igual
TTITLE3=Aconchego Do Amor
TTITLE4=Flecha Do Cupido
TTITLE5=Meu Paraíso
TTITLE6=Sonho Dourado
TTITLE7=Castelo De Emoção
TTITLE8=Metade Sem Você
TTITLE9=Vou Te Dar Uma Dura
TTITLE10=Dono Do Seu Coração
TTITLE11=Minha Razão
TTITLE12=Só Pra Cantarolar
EXTD=
EXTT0=
EXTT1=
EXTT2=
EXTT3=
EXTT4=
EXTT5=
EXTT6=
EXTT7=
EXTT8=
EXTT9=
EXTT10=
EXTT11=
EXTT12=
PLAYORDER=
